<?xml version="1.0" encoding="UTF-8" standalone="no"?><!-- Generator: Gravit.io --><svg xmlns="http://www.w3.org/2000/svg" xmlns:xlink="http://www.w3.org/1999/xlink" style="isolation:isolate" viewBox="0 0 170 80" width="170pt" height="80pt"><g><g><path d=" M 76.052 9.214 C 76.982 9.237 77.813 9.798 78.184 10.651 L 83.545 19.606 L 88.908 10.651 C 89.277 9.798 90.109 9.237 91.039 9.214 C 92.241 9.137 93.298 10.004 93.459 11.198 C 93.465 11.113 93.469 11.028 93.469 10.937 C 93.443 10.324 93.17 9.747 92.712 9.338 C 92.255 8.929 91.651 8.723 91.039 8.766 C 90.109 8.789 89.278 9.349 88.908 10.203 L 83.545 19.157 L 78.184 10.203 C 77.813 9.35 76.982 8.789 76.052 8.766 C 75.44 8.723 74.836 8.929 74.378 9.338 C 73.92 9.747 73.647 10.324 73.621 10.937 C 73.621 11.028 73.621 11.114 73.632 11.198 C 73.792 10.004 74.85 9.137 76.052 9.214 Z " fill="rgb(160,84,160)"/><path d=" M 63.423 18.455 C 61.859 18.756 60.858 19.391 60.858 20.894 C 60.858 20.974 60.858 21.05 60.868 21.126 C 60.962 19.779 61.934 19.19 63.423 18.904 C 64.096 18.877 64.73 18.584 65.187 18.088 C 65.643 17.593 65.883 16.937 65.855 16.264 C 65.855 16.185 65.847 16.108 65.847 16.031 C 65.792 17.346 64.738 18.4 63.423 18.455 Z " fill="rgb(160,84,160)"/><path d=" M 149.324 34.426 C 146.199 34.529 143.202 33.185 141.199 30.785 C 140.664 30.196 140.346 29.441 140.299 28.647 C 140.263 27.96 140.531 27.292 141.032 26.821 C 141.459 26.458 142.003 26.264 142.562 26.273 C 143.468 26.412 144.276 26.92 144.793 27.676 C 145.929 28.982 147.563 29.746 149.293 29.781 C 151.514 29.781 152.788 28.795 152.788 27.075 C 152.788 24.859 150.539 23.916 147.942 22.823 C 144.718 21.471 141.065 19.939 141.065 15.481 C 140.97 13.425 141.835 11.441 143.405 10.11 C 144.897 8.981 146.721 8.379 148.591 8.397 C 150.409 8.354 152.204 8.804 153.786 9.701 C 155.276 10.564 157.014 12.194 157.014 13.945 C 157.015 14.507 156.764 15.04 156.329 15.397 C 155.884 15.761 155.324 15.956 154.749 15.948 C 153.846 15.869 153.024 15.399 152.499 14.661 C 152.278 14.415 152.038 14.186 151.783 13.976 C 150.876 13.291 149.755 12.948 148.62 13.008 C 146.859 13.008 145.855 13.888 145.855 15.413 C 145.855 16.991 147.769 17.814 149.985 18.767 C 153.367 20.221 157.578 22.032 157.578 27.343 C 157.633 29.378 156.727 31.321 155.133 32.588 C 153.458 33.836 151.412 34.483 149.324 34.426 Z  M 62.053 34.261 L 61.825 34.261 L 55.199 34.195 C 54.556 34.236 53.925 34 53.467 33.546 C 53.009 33.093 52.766 32.465 52.801 31.821 L 52.801 10.77 C 52.767 10.126 53.01 9.499 53.468 9.045 C 53.926 8.592 54.556 8.356 55.199 8.397 L 61.858 8.397 C 64.218 8.248 66.553 8.953 68.435 10.385 C 69.888 11.672 70.689 13.543 70.616 15.482 C 70.597 17.633 69.444 19.615 67.584 20.695 C 67.565 20.707 67.554 20.727 67.554 20.749 C 67.555 20.769 67.566 20.787 67.584 20.796 C 68.857 21.294 69.96 22.147 70.761 23.255 C 71.526 24.369 71.929 25.692 71.914 27.043 C 72.013 28.982 71.22 30.86 69.762 32.141 C 68.11 33.547 65.516 34.261 62.053 34.261 Z  M 57.561 12.808 L 57.561 29.72 L 62.452 29.72 C 65.437 29.72 67.016 28.702 67.016 26.778 C 67.016 24.662 66.032 23.765 63.385 23.471 C 61.729 23.259 60.854 22.37 60.854 20.898 C 60.854 19.552 61.645 18.8 63.418 18.458 C 64.091 18.432 64.726 18.138 65.183 17.643 C 65.639 17.147 65.879 16.49 65.85 15.817 C 65.937 14.998 65.651 14.184 65.07 13.6 C 64.49 13.016 63.677 12.725 62.858 12.808 L 57.561 12.808 Z  M 83.513 34.194 C 82.825 34.159 82.181 33.841 81.734 33.317 C 81.287 32.792 81.075 32.106 81.149 31.421 L 81.149 24.002 L 74.255 12.908 C 73.848 12.332 73.627 11.645 73.621 10.94 C 73.62 10.346 73.877 9.781 74.325 9.391 C 74.805 8.978 75.42 8.755 76.053 8.765 C 76.983 8.789 77.814 9.349 78.186 10.202 L 83.546 19.156 L 88.909 10.201 C 89.279 9.349 90.109 8.789 91.038 8.765 C 91.67 8.754 92.285 8.975 92.765 9.387 C 93.214 9.778 93.472 10.345 93.47 10.94 C 93.465 11.646 93.244 12.334 92.838 12.911 L 85.943 24.002 L 85.943 31.42 C 85.943 33.105 84.988 34.194 83.513 34.194 Z  M 98.967 34.097 C 96.729 34.197 94.562 33.295 93.056 31.637 C 92.012 30.482 91.405 28.999 91.338 27.444 C 91.307 26.795 91.547 26.163 92.001 25.699 C 92.455 25.235 93.082 24.981 93.731 24.998 C 93.798 24.998 93.867 24.998 93.935 25.006 C 95.232 25.112 95.586 26.045 95.961 27.032 C 96.413 28.221 96.879 29.451 99.004 29.451 L 99.097 29.451 C 100.092 29.521 101.057 29.1 101.683 28.324 C 102.303 27.31 102.587 26.126 102.493 24.942 L 102.493 11.539 C 102.493 9.802 103.39 8.765 104.892 8.765 C 106.348 8.765 107.29 9.853 107.29 11.539 L 107.29 24.841 C 107.29 30.893 104.411 34.092 98.967 34.092 L 98.967 34.097 Z  M 121.412 34.063 C 118.857 34.224 116.361 33.254 114.585 31.412 C 112.972 29.61 112.153 26.939 112.153 23.472 L 112.153 11.539 C 112.117 10.801 112.353 10.075 112.815 9.499 C 113.257 9.011 113.892 8.743 114.549 8.765 C 116.006 8.765 116.947 9.853 116.947 11.539 L 116.947 23.1 C 116.947 25.414 117.318 27.018 118.079 28.004 C 118.901 28.972 120.146 29.475 121.41 29.349 C 122.672 29.473 123.915 28.971 124.735 28.004 C 125.497 27.019 125.867 25.415 125.867 23.1 L 125.867 11.539 C 125.867 9.853 126.808 8.765 128.265 8.765 C 128.924 8.742 129.558 9.011 130.001 9.499 C 130.463 10.076 130.698 10.801 130.662 11.539 L 130.662 23.467 C 130.662 26.934 129.844 29.605 128.231 31.406 C 126.456 33.247 123.963 34.217 121.41 34.058 L 121.412 34.063 Z  M 135.866 17.619 C 134.538 17.619 133.836 16.337 133.836 13.91 L 133.836 12.006 C 133.836 9.814 134.629 8.763 136.332 8.697 C 137.032 8.644 137.72 8.901 138.214 9.4 C 138.636 9.94 138.845 10.618 138.801 11.303 C 138.658 13.076 138.231 14.814 137.536 16.451 C 137.263 17.139 136.607 17.599 135.866 17.619 Z " fill="rgb(129,53,136)"/><path d=" M 116.947 23.549 C 116.947 28.293 118.479 29.797 121.41 29.797 C 124.341 29.797 125.872 28.293 125.872 23.549 L 125.872 23.1 C 125.872 27.845 124.34 29.349 121.41 29.349 C 118.48 29.349 116.947 27.845 116.947 23.1 L 116.947 23.549 Z " fill="rgb(160,84,160)"/><path d=" M 145.871 15.611 C 145.861 15.693 145.861 15.777 145.861 15.863 C 145.861 19.767 157.358 18.955 157.577 27.544 C 157.577 27.477 157.583 27.412 157.583 27.349 C 157.583 18.644 146.257 19.328 145.871 15.611 Z " fill="rgb(160,84,160)"/><path d=" M 142.563 26.723 C 143.472 26.857 144.283 27.366 144.798 28.127 C 145.937 29.428 147.569 30.191 149.298 30.231 C 151.396 30.231 152.793 29.329 152.793 27.525 C 152.793 27.442 152.793 27.36 152.784 27.28 C 152.686 28.943 151.316 29.781 149.298 29.781 C 147.569 29.741 145.937 28.978 144.798 27.677 C 144.283 26.917 143.472 26.408 142.563 26.275 C 141.937 26.251 141.331 26.497 140.898 26.951 C 140.465 27.404 140.247 28.021 140.299 28.646 C 140.299 28.709 140.299 28.777 140.31 28.841 C 140.322 28.26 140.568 27.708 140.992 27.309 C 141.416 26.911 141.982 26.699 142.563 26.723 Z " fill="rgb(160,84,160)"/><path d=" M 91.338 27.443 C 91.338 27.528 91.338 27.616 91.347 27.705 C 91.366 27.054 91.657 26.44 92.148 26.012 C 92.64 25.585 93.287 25.381 93.935 25.452 C 96.8 25.686 95.069 29.964 99.096 29.897 C 101.461 29.863 102.488 28.427 102.488 25.386 L 102.488 24.937 C 102.488 27.978 101.457 29.414 99.093 29.448 C 95.069 29.514 96.8 25.237 93.935 25.004 C 93.254 24.929 92.574 25.155 92.074 25.625 C 91.575 26.094 91.306 26.758 91.338 27.443 Z " fill="rgb(160,84,160)"/><path d=" M 62.457 30.165 C 65.454 30.165 67.019 29.128 67.019 27.225 C 67.019 27.128 67.019 27.03 67.012 26.937 C 66.922 28.737 65.367 29.717 62.457 29.717 L 57.561 29.717 L 57.561 30.165 L 62.457 30.165 Z " fill="rgb(160,84,160)"/><path d=" M 67.586 20.794 C 67.568 20.785 67.557 20.767 67.556 20.747 C 67.556 20.724 67.567 20.703 67.586 20.69 L 67.592 20.69 C 67.529 20.737 67.42 20.821 67.323 20.897 C 67.283 20.928 67.263 20.977 67.269 21.027 C 67.276 21.076 67.307 21.119 67.353 21.139 L 67.586 21.241 C 70.152 22.176 71.873 24.6 71.909 27.33 C 71.909 27.232 71.915 27.134 71.915 27.042 C 71.914 26.313 71.8 25.59 71.579 24.896 C 70.928 23 69.463 21.496 67.586 20.794 Z " fill="rgb(160,84,160)"/><path d=" M 41.561 5.001 C 42.4 5.002 43.203 5.336 43.795 5.93 C 44.386 6.524 44.718 7.328 44.717 8.166 L 44.717 34.492 C 44.718 35.33 44.387 36.135 43.795 36.728 C 43.203 37.322 42.4 37.657 41.561 37.658 L 15.325 37.658 C 14.487 37.656 13.683 37.322 13.092 36.728 C 12.5 36.134 12.169 35.33 12.17 34.492 L 12.17 8.166 C 12.169 7.328 12.5 6.524 13.092 5.93 C 13.684 5.337 14.487 5.002 15.325 5.001 L 41.561 5.001 Z " fill="rgb(129,53,136)"/></g><g><path d=" M 15.326 5.002 C 14.488 5.003 13.685 5.337 13.093 5.93 C 12.501 6.524 12.17 7.328 12.171 8.166 L 12.171 8.166 L 12.171 18.875 C 12.17 19.376 12.368 19.856 12.722 20.211 C 13.075 20.566 13.555 20.765 14.055 20.766 L 42.834 20.766 C 43.334 20.765 43.814 20.565 44.167 20.211 C 44.52 19.856 44.718 19.376 44.717 18.875 L 44.717 18.875 L 44.717 8.166 C 44.719 7.328 44.387 6.524 43.796 5.93 C 43.204 5.337 42.4 5.003 41.562 5.002 L 15.326 5.002 Z " fill="none"/><clipPath id="_clipPath_S58UWkNOOT48lulCgpAVCvZfHQDikB1V"><path d=" M 15.326 5.002 C 14.488 5.003 13.685 5.337 13.093 5.93 C 12.501 6.524 12.17 7.328 12.171 8.166 L 12.171 8.166 L 12.171 18.875 C 12.17 19.376 12.368 19.856 12.722 20.211 C 13.075 20.566 13.555 20.765 14.055 20.766 L 42.834 20.766 C 43.334 20.765 43.814 20.565 44.167 20.211 C 44.52 19.856 44.718 19.376 44.717 18.875 L 44.717 18.875 L 44.717 8.166 C 44.719 7.328 44.387 6.524 43.796 5.93 C 43.204 5.337 42.4 5.003 41.562 5.002 L 15.326 5.002 Z " fill="rgb(255,255,255)"/></clipPath><g clip-path="url(#_clipPath_S58UWkNOOT48lulCgpAVCvZfHQDikB1V)"><g><path d=" M 15.326 5.002 C 14.488 5.003 13.685 5.337 13.093 5.93 C 12.501 6.524 12.17 7.328 12.171 8.166 L 12.171 8.166 L 12.171 18.875 C 12.17 19.376 12.368 19.856 12.722 20.211 C 13.075 20.566 13.555 20.765 14.055 20.766 L 42.834 20.766 C 43.334 20.765 43.814 20.565 44.167 20.211 C 44.52 19.856 44.718 19.376 44.717 18.875 L 44.717 18.875 L 44.717 8.166 C 44.719 7.328 44.387 6.524 43.796 5.93 C 43.204 5.337 42.4 5.003 41.562 5.002 L 15.326 5.002 Z " fill="none"/></g></g></g><g><path d=" M 14.055 21.892 C 13.013 21.894 12.17 22.74 12.171 23.783 L 12.171 23.783 L 12.171 34.492 C 12.17 35.33 12.501 36.134 13.093 36.728 C 13.684 37.322 14.488 37.656 15.326 37.658 L 41.562 37.658 C 42.401 37.656 43.204 37.322 43.795 36.728 C 44.387 36.134 44.718 35.33 44.717 34.492 L 44.717 34.492 L 44.717 23.783 C 44.718 23.282 44.52 22.802 44.167 22.447 C 43.814 22.093 43.334 21.893 42.834 21.892 L 14.055 21.892 Z " fill="none"/><clipPath id="_clipPath_12F9jR7RDiMTs7DLNbdFUV1FJffaXkKX"><path d=" M 14.055 21.892 C 13.013 21.894 12.17 22.74 12.171 23.783 L 12.171 23.783 L 12.171 34.492 C 12.17 35.33 12.501 36.134 13.093 36.728 C 13.684 37.322 14.488 37.656 15.326 37.658 L 41.562 37.658 C 42.401 37.656 43.204 37.322 43.795 36.728 C 44.387 36.134 44.718 35.33 44.717 34.492 L 44.717 34.492 L 44.717 23.783 C 44.718 23.282 44.52 22.802 44.167 22.447 C 43.814 22.093 43.334 21.893 42.834 21.892 L 14.055 21.892 Z " fill="rgb(255,255,255)"/></clipPath><g clip-path="url(#_clipPath_12F9jR7RDiMTs7DLNbdFUV1FJffaXkKX)"><g><path d=" M 14.055 21.892 C 13.013 21.894 12.17 22.74 12.171 23.783 L 12.171 23.783 L 12.171 34.492 C 12.17 35.33 12.501 36.134 13.093 36.728 C 13.684 37.322 14.488 37.656 15.326 37.658 L 41.562 37.658 C 42.401 37.656 43.204 37.322 43.795 36.728 C 44.387 36.134 44.718 35.33 44.717 34.492 L 44.717 34.492 L 44.717 23.783 C 44.718 23.282 44.52 22.802 44.167 22.447 C 43.814 22.093 43.334 21.893 42.834 21.892 L 14.055 21.892 Z " fill="none"/></g></g></g><g><path d=" M 41.624 6.046 C 42.17 6.046 42.693 6.263 43.079 6.649 C 43.464 7.036 43.68 7.56 43.678 8.105 L 43.678 34.553 C 43.678 35.098 43.462 35.621 43.076 36.006 C 42.691 36.391 42.169 36.607 41.624 36.607 L 15.266 36.607 C 14.721 36.607 14.199 36.391 13.814 36.006 C 13.428 35.621 13.212 35.098 13.212 34.553 L 13.212 8.105 C 13.211 7.56 13.426 7.036 13.812 6.649 C 14.197 6.263 14.72 6.046 15.266 6.046 L 41.624 6.046 Z " fill="rgb(129,53,136)"/><path d=" M 33.251 29.75 L 33.251 29.75 L 26.926 31.577 C 26.392 31.733 25.833 31.426 25.677 30.892 L 20.891 14.256 C 20.737 13.719 21.046 13.158 21.583 13.001 L 28.126 11.105 C 29.637 10.656 31.271 11.115 32.327 12.284 C 33.186 13.179 33.641 14.387 33.586 15.626 C 33.53 16.866 32.969 18.028 32.034 18.843 C 34.736 19.009 36.927 21.094 37.227 23.785 C 37.527 26.475 35.849 28.992 33.25 29.749" fill="rgb(75,32,90)"/><path d=" M 26.502 32.896 C 25.601 32.891 24.812 32.294 24.563 31.428 L 19.662 14.392 C 19.352 13.318 19.969 12.196 21.042 11.883 L 27.764 9.936 C 28.184 9.817 28.619 9.759 29.055 9.762 C 30.751 9.752 32.367 10.48 33.484 11.756 C 34.223 12.68 34.677 13.8 34.788 14.978 C 34.879 16.048 34.665 17.122 34.171 18.076 C 35.532 18.613 36.684 19.573 37.458 20.815 C 38.295 22.193 38.643 23.812 38.446 25.412 C 38.268 26.662 37.723 27.831 36.881 28.772 C 36.082 29.749 35.018 30.475 33.817 30.862 L 27.057 32.818 C 26.876 32.87 26.689 32.896 26.502 32.896 Z  M 29.296 10.936 C 28.903 10.936 28.512 10.992 28.135 11.101 L 21.582 12.999 C 21.046 13.157 20.738 13.717 20.891 14.254 L 25.676 30.882 C 25.749 31.14 25.922 31.358 26.156 31.488 C 26.391 31.618 26.667 31.65 26.925 31.575 L 33.25 29.743 C 35.848 28.986 37.527 26.47 37.227 23.779 C 36.927 21.089 34.737 19.004 32.035 18.837 C 32.94 18.054 33.496 16.942 33.579 15.748 C 33.645 14.468 33.191 13.216 32.319 12.276 C 31.548 11.419 30.449 10.932 29.296 10.936 Z " fill="rgb(254,254,254)"/><path d=" M 35.221 25.317 C 35.225 22.508 32.968 20.219 30.16 20.184 C 31.053 19.404 31.593 18.296 31.656 17.111 C 31.718 15.927 31.298 14.767 30.491 13.898 C 29.471 12.726 27.861 12.257 26.371 12.696 L 20.898 14.281 L 25.676 30.887 C 25.75 31.145 25.923 31.364 26.158 31.494 C 26.392 31.624 26.669 31.655 26.927 31.581 L 31.418 30.281 L 31.481 30.261 C 33.694 29.637 35.223 27.617 35.221 25.318" fill="rgb(129,53,136)"/><path d=" M 149.61 34.754 L 149.576 34.754 C 146.442 34.848 143.44 33.491 141.44 31.076 C 140.905 30.482 140.589 29.723 140.546 28.924 C 140.512 28.238 140.78 27.572 141.28 27.101 C 141.708 26.739 142.252 26.545 142.812 26.554 L 142.823 26.554 C 143.73 26.696 144.538 27.208 145.055 27.968 C 146.954 29.834 148.397 30.088 149.554 30.09 L 149.575 30.09 C 151.79 30.09 153.063 29.104 153.068 27.386 C 153.074 25.165 150.825 24.213 148.222 23.111 C 144.994 21.741 141.336 20.196 141.349 15.727 C 141.259 13.665 142.131 11.678 143.709 10.347 C 145.209 9.222 147.041 8.626 148.916 8.652 C 150.739 8.615 152.538 9.071 154.123 9.974 C 155.614 10.844 157.35 12.484 157.35 14.238 C 157.351 14.801 157.1 15.334 156.666 15.692 C 156.218 16.055 155.658 16.25 155.081 16.242 L 155.075 16.242 C 154.171 16.16 153.349 15.686 152.826 14.944 C 152.604 14.699 152.365 14.47 152.11 14.26 C 151.202 13.57 150.079 13.223 148.94 13.282 L 148.921 13.282 C 147.17 13.282 146.163 14.162 146.158 15.685 C 146.158 17.267 148.071 18.098 150.29 19.059 C 153.678 20.526 157.894 22.354 157.879 27.679 C 157.928 29.715 157.02 31.656 155.425 32.923 C 153.747 34.169 151.699 34.813 149.61 34.754 Z  M 62.149 34.337 L 62.149 34.337 L 61.844 34.337 L 55.201 34.252 C 54.555 34.272 53.928 34.032 53.461 33.585 C 53.015 33.124 52.777 32.5 52.803 31.859 L 52.862 10.757 C 52.83 10.113 53.074 9.486 53.533 9.033 C 53.991 8.58 54.621 8.344 55.265 8.384 L 55.272 8.384 L 61.951 8.404 C 64.318 8.261 66.657 8.976 68.539 10.417 C 69.993 11.711 70.79 13.588 70.712 15.532 C 70.689 17.689 69.528 19.673 67.659 20.749 C 67.641 20.762 67.63 20.783 67.629 20.805 C 67.629 20.825 67.641 20.842 67.659 20.85 C 68.934 21.354 70.037 22.213 70.837 23.327 C 71.601 24.446 72.002 25.774 71.983 27.13 C 72.077 29.066 71.285 30.94 69.832 32.222 C 68.177 33.625 65.593 34.337 62.149 34.337 Z  M 57.631 12.814 L 57.631 12.814 L 57.584 29.767 L 62.492 29.781 L 62.522 29.781 C 65.495 29.781 67.069 28.766 67.074 26.847 C 67.08 24.724 66.096 23.823 63.444 23.521 C 61.781 23.305 60.909 22.411 60.913 20.936 C 60.913 19.587 61.712 18.834 63.491 18.496 C 64.167 18.472 64.805 18.18 65.264 17.685 C 65.723 17.189 65.965 16.53 65.937 15.855 C 65.98 15.057 65.714 14.273 65.193 13.667 C 64.594 13.084 63.778 12.781 62.944 12.831 L 57.631 12.814 Z  M 83.599 34.332 L 83.599 34.332 C 82.963 34.334 82.356 34.064 81.931 33.59 C 81.447 33.021 81.196 32.291 81.226 31.545 L 81.249 24.111 L 74.369 12.963 C 73.96 12.383 73.738 11.692 73.734 10.983 C 73.735 10.389 73.993 9.824 74.442 9.435 C 74.925 9.021 75.544 8.799 76.179 8.812 L 76.179 8.812 C 77.111 8.839 77.943 9.404 78.312 10.26 L 83.662 19.259 L 89.063 10.294 C 89.436 9.44 90.269 8.879 91.201 8.855 L 91.208 8.855 C 91.842 8.846 92.458 9.07 92.938 9.485 C 93.386 9.877 93.642 10.444 93.64 11.04 C 93.633 11.748 93.411 12.438 93.001 13.016 L 86.058 24.119 L 86.039 31.557 C 86.031 33.242 85.074 34.331 83.599 34.331 L 83.599 34.332 Z  M 121.633 34.304 L 121.589 34.304 C 119.027 34.458 116.527 33.478 114.751 31.626 C 113.139 29.815 112.326 27.134 112.336 23.657 L 112.369 11.697 C 112.335 10.958 112.573 10.232 113.037 9.656 C 113.48 9.169 114.115 8.901 114.773 8.924 L 114.781 8.924 C 115.438 8.907 116.069 9.178 116.508 9.666 C 116.975 10.241 117.214 10.969 117.178 11.71 L 117.146 23.303 C 117.14 25.623 117.505 27.232 118.266 28.223 C 119.087 29.196 120.334 29.704 121.601 29.582 L 121.621 29.582 C 122.884 29.706 124.126 29.202 124.947 28.235 C 125.71 27.249 126.084 25.644 126.091 23.329 L 126.124 11.737 C 126.131 10.047 127.075 8.961 128.531 8.961 L 128.538 8.961 C 129.199 8.941 129.835 9.213 130.277 9.704 C 130.739 10.282 130.973 11.01 130.935 11.749 L 130.901 23.709 C 130.892 27.178 130.068 29.85 128.456 31.651 C 126.681 33.494 124.186 34.463 121.633 34.304 Z  M 99.124 34.275 L 99.083 34.275 C 96.838 34.369 94.669 33.459 93.163 31.791 C 92.122 30.631 91.517 29.143 91.455 27.585 C 91.425 26.936 91.667 26.304 92.123 25.84 C 92.578 25.376 93.206 25.123 93.856 25.14 C 93.926 25.14 93.998 25.14 94.067 25.149 C 95.367 25.258 95.719 26.196 96.092 27.186 C 96.543 28.384 97.008 29.622 99.154 29.622 L 99.23 29.622 C 100.227 29.694 101.196 29.274 101.824 28.497 C 102.45 27.482 102.738 26.296 102.648 25.107 L 102.686 11.67 C 102.691 9.933 103.59 8.895 105.089 8.895 L 105.097 8.895 C 106.557 8.895 107.498 9.993 107.493 11.682 L 107.455 25.018 C 107.439 31.073 104.557 34.274 99.124 34.274 L 99.124 34.274 L 99.124 34.275 Z  M 136.137 17.862 L 136.129 17.862 C 135.473 17.871 134.874 17.491 134.602 16.894 C 134.221 16.028 134.051 15.084 134.105 14.14 L 134.11 12.23 C 134.116 10.029 134.916 8.978 136.626 8.919 C 137.328 8.868 138.017 9.127 138.511 9.627 C 138.932 10.172 139.138 10.852 139.09 11.539 C 138.94 13.317 138.505 15.059 137.8 16.698 C 137.525 17.381 136.873 17.838 136.137 17.862 Z " fill="rgb(129,53,136)"/><path d=" M 12.051 59.94 C 12.051 50.989 18.702 44.877 27.278 44.877 C 32.071 44.765 36.542 47.278 38.937 51.431 L 34.587 53.651 C 33.058 51.059 30.286 49.454 27.277 49.418 C 21.539 49.418 17.272 53.827 17.272 59.94 C 17.272 66.053 21.539 70.458 27.278 70.458 C 30.292 70.439 33.072 68.828 34.588 66.222 L 38.936 68.45 C 36.531 72.591 32.065 75.099 27.277 74.997 C 18.702 74.997 12.051 68.887 12.051 59.94 Z " fill="rgb(88,88,91)"/><path d=" M 12.051 74.997 L 157.949 74.997 L 157.949 5 L 12.051 5 L 12.051 74.997 Z " fill="none"/><clipPath id="_clipPath_zhXjuMLccMZ8LonuqyeRC7xxFE0MnLvh"><path d=" M 12.051 74.997 L 157.949 74.997 L 157.949 5 L 12.051 5 L 12.051 74.997 Z " fill="rgb(255,255,255)"/></clipPath><g clip-path="url(#_clipPath_zhXjuMLccMZ8LonuqyeRC7xxFE0MnLvh)"><g><path d=" M 42.901 74.474 L 47.469 74.474 L 47.469 45.358 L 42.901 45.358 L 42.901 74.474 Z " fill="rgb(88,88,91)"/><path d=" M 59.436 74.998 C 57.637 75.002 55.892 74.388 54.493 73.257 C 52.939 71.966 52.067 70.031 52.127 68.012 C 52.044 65.989 52.921 64.046 54.493 62.77 C 55.918 61.703 57.656 61.138 59.436 61.162 C 61.986 61.021 64.469 62.011 66.222 63.868 L 66.222 60.723 C 66.222 58.337 64.293 56.795 61.306 56.795 C 58.955 56.792 56.706 57.754 55.086 59.458 L 53.215 56.271 C 54.387 55.15 55.772 54.276 57.287 53.7 C 58.81 53.135 60.422 52.853 62.046 52.865 C 64.215 52.761 66.36 53.354 68.168 54.557 C 69.968 55.986 70.949 58.211 70.79 60.504 L 70.79 74.474 L 66.222 74.474 L 66.222 72.203 C 64.475 74.078 61.997 75.099 59.436 74.998 Z  M 61.223 64.303 C 60.069 64.268 58.938 64.632 58.021 65.334 C 57.192 66.01 56.72 67.031 56.743 68.1 C 56.743 70.311 58.585 71.854 61.223 71.854 C 63.142 71.956 64.996 71.148 66.226 69.672 L 66.226 66.486 C 64.996 65.01 63.142 64.202 61.223 64.303 Z " fill="rgb(88,88,91)"/><path d=" M 74.885 71.723 L 76.974 68.407 C 78.907 70.241 81.45 71.298 84.114 71.375 C 86.853 71.375 88.246 70.196 88.246 68.539 C 88.246 64.392 75.544 67.365 75.544 59.285 C 75.539 55.834 78.496 52.865 83.805 52.865 C 86.806 52.796 89.725 53.855 91.983 55.834 L 90.07 59.062 C 88.434 57.394 86.183 56.478 83.848 56.528 C 81.455 56.528 79.935 57.62 79.935 59.105 C 79.935 62.859 92.64 60.065 92.64 68.447 C 92.64 72.157 89.55 74.994 83.895 74.994 C 80.581 75.117 77.349 73.944 74.885 71.723 Z " fill="rgb(88,88,91)"/><path d=" M 95.424 71.723 L 97.512 68.407 C 99.444 70.24 101.984 71.296 104.646 71.375 C 107.385 71.375 108.78 70.196 108.78 68.539 C 108.78 64.392 96.075 67.365 96.075 59.285 C 96.075 55.834 99.034 52.865 104.342 52.865 C 107.344 52.796 110.263 53.855 112.521 55.834 L 110.607 59.062 C 108.972 57.394 106.72 56.478 104.386 56.528 C 101.994 56.528 100.474 57.62 100.474 59.105 C 100.474 62.859 113.178 60.065 113.178 68.447 C 113.178 72.157 110.088 74.994 104.433 74.994 C 101.119 75.117 97.887 73.944 95.424 71.723 Z " fill="rgb(88,88,91)"/><path d=" M 127.491 74.997 C 124.57 75.062 121.741 73.97 119.622 71.958 C 118.619 70.965 117.834 69.774 117.317 68.46 C 116.752 67.01 116.469 65.465 116.483 63.909 C 116.443 61.016 117.516 58.217 119.48 56.092 C 121.476 53.999 124.252 52.829 127.145 52.864 C 130.015 52.784 132.775 53.974 134.686 56.118 C 135.611 57.181 136.319 58.417 136.767 59.753 C 137.264 61.234 137.511 62.788 137.498 64.35 L 137.498 65.441 L 121.27 65.441 C 121.421 67.003 122.129 68.458 123.265 69.539 C 124.558 70.689 126.241 71.301 127.97 71.248 C 130.175 71.241 132.298 70.416 133.93 68.933 L 136.019 71.938 C 133.676 74.018 130.621 75.114 127.491 74.997 Z  M 127.145 56.619 C 125.498 56.566 123.911 57.233 122.798 58.448 C 121.887 59.502 121.336 60.819 121.225 62.208 L 133.06 62.208 C 133.015 60.838 132.507 59.524 131.618 58.481 C 130.475 57.23 128.837 56.549 127.145 56.619 Z " fill="rgb(88,88,91)"/><path d=" M 140.199 71.723 L 142.288 68.407 C 144.22 70.24 146.76 71.296 149.422 71.375 C 152.161 71.375 153.555 70.196 153.555 68.539 C 153.555 64.392 140.851 67.365 140.851 59.285 C 140.851 55.834 143.809 52.865 149.118 52.865 C 152.119 52.796 155.038 53.855 157.297 55.834 L 155.382 59.062 C 153.748 57.394 151.496 56.478 149.162 56.528 C 146.769 56.528 145.249 57.62 145.249 59.105 C 145.249 62.859 157.954 60.065 157.954 68.447 C 157.954 72.157 154.864 74.994 149.209 74.994 C 145.894 75.117 142.663 73.944 140.199 71.723 Z " fill="rgb(88,88,91)"/></g></g></g></g></svg>